<?xml version="1.0" encoding="UTF-8"?>
<svg id="Layer_1" data-name="Layer 1" xmlns="http://www.w3.org/2000/svg" viewBox="0 0 1729.59 792.95">
  <defs>
    <style>
      .cls-1 {
        stroke-width: 4px;
      }

      .cls-1, .cls-2, .cls-3, .cls-4 {
        fill: #fff;
        stroke: #231f20;
        stroke-miterlimit: 10;
      }

      .cls-2 {
        stroke-width: 20px;
      }

      .cls-3, .cls-4 {
        stroke-width: 10px;
      }

      .cls-4 {
        font-family: MyriadPro-Regular, 'Myriad Pro';
        font-size: 298.55px;
      }
    </style>
  </defs>
  <g>
    <path class="cls-3" d="M11.18,312.27c1.01-85.07,25.58-151.75,75.9-208.18C132.43,53.24,189.13,21.94,256.25,9.77c19.84-3.6,39.85-5.26,59.96-4.65,43.02,1.31,84.14,10.76,123.01,29.64,57.55,27.96,101.84,69.99,132.85,125.87,18.77,33.82,30.2,70.17,34.38,108.69,5.85,53.87-1.62,105.86-23.5,155.44-25.28,57.31-63.8,103.25-118.49,134.75-15.18,8.74-31.28,15.38-48.19,20-7.98,2.18-12.31.12-15.31-7.56-21.78-55.92-43.54-111.85-65.27-167.79-3.09-7.95-.82-12.71,7.5-15.98,19.67-7.74,35.85-19.54,45.04-39.25,5.7-12.22,7.76-25.23,8.62-38.68,1.28-19.88-3.35-38-14.52-54.24-15.55-22.64-37-35.76-64.6-38.32-43.73-4.06-86.31,25.3-93.36,69.16-5.52,34.35,1.45,66.2,29.56,89.88,6.7,5.64,15.25,9.33,23.38,12.93,8.67,3.84,11.05,7.93,7.55,16.57-22.32,54.98-44.65,109.96-66.99,164.94-3.39,8.34-7.24,10.22-16.01,7.71-31.2-8.93-58.83-24.59-83.38-45.55-53.75-45.9-87.56-103.8-101.27-173.1-3.73-18.82-4.85-38.16-6.04-47.96ZM417.08,558.45c2.5-.81,4.24-1.33,5.95-1.93,21.4-7.47,41.25-18.04,58.71-32.39,81.64-67.11,115.92-154.05,103.93-258.47-7.35-63.95-36.07-118.6-82.91-162.67C435.98,40.18,356.34,15.41,265.84,28.53c-65.43,9.48-120.45,40.01-164.4,89.53-46.96,52.9-69.98,115.31-70.1,185.91-.09,48.24,12.22,93.59,35.74,135.7,23.69,42.41,55.53,77.15,97.69,101.84,11.6,6.79,23.75,12.42,37.05,16.34,20.62-50.8,41.11-101.27,61.7-151.97-12.54-5.69-23.5-12.65-32.13-22.59-26.25-30.26-33.63-65.82-25.82-104.13,8.61-42.22,43.43-72.86,88.49-80.62,40.46-6.96,83.33,12.51,106.16,48.07,16.89,26.31,19.89,54.89,14.28,84.95-5.63,30.13-21.47,52.99-48.36,67.96-2.87,1.6-5.8,3.07-8.99,4.75,20.01,51.49,39.88,102.61,59.93,154.2Z"/>
    <path class="cls-1" d="M69.8,625.95c2.39,0,4.36,0,6.33,0q8.38,0,12.38,6.87c1.98-1.75,3.77-3.74,5.94-5.17,8.65-5.72,20.36-2.87,25.17,6.79,6.37,12.79,6.47,26.19.17,38.99-5.9,12-18.56,13.51-31.07,4.14v29.38h-18.91v-81.01ZM104.43,653.71c-.5-3.01-.4-6.4-1.73-9.08-.97-1.96-3.78-4.08-5.83-4.14-2.08-.07-5.35,1.81-6.17,3.68-2.8,6.42-2.84,13.38.09,19.75.9,1.95,4.37,3.78,6.62,3.73,1.91-.05,4.55-2.53,5.45-4.57,1.22-2.75,1.09-6.11,1.56-9.37Z"/>
    <path class="cls-1" d="M253.82,682.55h-19.2c0-9.88.04-19.5-.03-29.11-.02-2.48-.26-4.98-.66-7.43-.54-3.27-2.47-6.15-5.84-5.6-2.73.45-6.07,2.24-7.48,4.48-1.64,2.6-1.9,6.33-1.99,9.59-.24,9.14-.08,18.3-.08,27.89h-19.36v-55.65c9.72-2.66,13.9-1.26,17.32,6.52,4.86-6.25,11.25-8.57,18.76-8.32,10.62.35,17.99,6.54,18.42,17.1.55,13.4.13,26.85.13,40.52Z"/>
    <path class="cls-1" d="M183.85,666.97c0,1.32,0,2.97,0,4.62.01,9.31-.09,10.19-9.19,11.05-7.81.73-16.01.75-23.64-.83-9.78-2.03-15.74-9.32-17.11-19.25-.8-5.83-.86-12.04.25-17.79,2.88-14.9,16.78-22.59,33.6-19.33,11.27,2.18,17.68,8.48,19.32,19.87.65,4.52.11,9.21.11,14.45h-34.17c.92,6.8,4.4,10.25,11.25,9.99,6.37-.25,12.69-1.75,19.59-2.78ZM169.68,647.33c-.97-6.62-3.9-9.47-8.58-9.18-4.58.29-7.09,3.22-7.42,9.18h16Z"/>
    <path class="cls-1" d="M30.42,624.94c17.16,0,28.24,11.6,28.09,29.42-.15,18.51-10.83,29.55-28.5,29.46-17.08-.09-27.97-11.6-28.01-29.58-.04-18.56,10.39-29.31,28.42-29.3ZM39.07,654.18c-.66-3.37-.63-6.97-2.13-9.72-1.21-2.21-4.27-4.64-6.55-4.69-2.3-.05-5.86,2.2-6.78,4.34-2.81,6.58-2.77,13.74.01,20.32.91,2.14,4.4,4.4,6.7,4.38,2.27-.02,5.41-2.37,6.55-4.55,1.54-2.93,1.54-6.68,2.2-10.09Z"/>
    <path class="cls-1" d="M483.55,764.76c-.31,10.26,4.79,16.45,14.05,16.47,6.35.01,12.71-1.5,19.11-2.34,1.48,7.91.68,9.18-7.46,10.92-1.14.24-2.3.35-3.46.5-11.03,1.44-21.69.7-29.01-8.93-7.77-10.22-7.31-21.92-3.13-33.33,4.03-10.99,14.4-15.98,27.29-14.16,10.45,1.48,17.32,8.95,18.56,20.38.35,3.27.34,6.59.52,10.49h-36.47ZM508.11,756.15c-.37-9.02-4.47-13.7-11.66-13.82-7.42-.13-12.17,4.89-12.79,13.82h24.45Z"/>
    <path class="cls-1" d="M333.61,789.69h-7.76c-.88-2.39-1.73-4.7-2.79-7.6-6.09,7.75-13.9,9.95-22.89,8.3-7.57-1.39-11.91-6.08-12.71-13.33-.98-8.86,1.93-15.06,9.55-17.69,5.25-1.81,10.99-2.31,16.55-3.09,2.74-.38,5.57-.07,8.25-.07,1.63-10.05-2.57-14.72-11.97-13.49-4.37.57-8.62,2.1-13.39,3.31-1.08-2.36-2.22-4.86-3.57-7.82,10.32-4.69,20.54-6.5,31.16-2.81,5.67,1.97,9.29,6.4,9.45,12.35.37,13.78.12,27.57.12,41.95ZM322.06,762.89c-6,.95-11.74,1.36-17.18,2.87-4.48,1.25-6.35,5.86-5.22,10.48,1.05,4.34,4.41,5.47,8.3,5.6,9.88.33,14.97-5.98,14.11-18.95Z"/>
    <path class="cls-1" d="M612.73,657.91h-35.85c-.98,8.7,3.96,15.8,11.99,16.05,6.98.22,14.01-1.17,21.06-1.85,1.05,8.2.4,9.14-8.2,10.77-.98.19-1.98.25-2.96.39-29.71,4.21-38.9-17.73-33.01-39.5,3.18-11.73,13.17-18.25,25.31-17.32,12.52.96,19.9,7.9,21.6,20.68.43,3.26.07,6.62.07,10.78ZM600.82,649.07c.71-7.86-3.26-13.07-10.28-13.77-7.67-.76-12.92,4.36-13.8,13.77h24.08Z"/>
    <path class="cls-1" d="M342.05,655.83c.25-21.22,12.72-32.05,31.91-28.88,11.41,1.88,19.21,11.05,20.16,24.52.32,4.57-.08,9.38-1.15,13.84-2.92,12.21-13.03,19.13-26.11,18.5-12.9-.62-22.17-8.88-24.23-21.7-.4-2.46-.47-4.97-.58-6.28ZM353.9,655.22c.47,3.03.66,6.21,1.5,9.21,1.9,6.77,6.2,9.77,13.21,9.66,6.48-.1,11.33-3.36,12.38-9.98.92-5.78.96-11.91.12-17.7-.99-6.8-5.97-10.25-12.64-10.37-7.2-.13-11.4,2.98-13.27,10.2-.74,2.86-.87,5.88-1.31,8.99Z"/>
    <path class="cls-1" d="M407.75,627.69h11.41c0,9.08,0,17.85,0,26.62,0,2.5-.04,4.99.02,7.49.2,7.95,2.9,11.68,8.8,12.29,8.5.87,14.18-2.69,15.26-10.64.93-6.88.79-13.92.98-20.89.13-4.81.03-9.62.03-14.18.61-.44.87-.78,1.15-.8q10.61-1.03,10.61,9.57v45.27h-9.16c-.6-2.06-1.2-4.09-1.96-6.69-6.45,7.04-14.18,9.24-23.14,7.54-7.95-1.51-13.35-5.69-13.78-13.56-.76-13.88-.21-27.83-.21-42Z"/>
    <path class="cls-1" d="M165.14,789.49c0-7.04,0-13.68,0-20.31,0-4.66.09-9.33-.06-13.99-.25-7.88-3.03-11.46-9.12-12.08-7.76-.79-13.4,2.84-14.91,10.08-.74,3.56-.94,7.27-1,10.92-.14,8.32-.04,16.63-.04,25.36h-11.26v-54.67h8.58c.63,2.01,1.25,4.03,2.05,6.62,6.16-6.69,13.61-8.84,22.2-7.58,8.83,1.3,14.6,6.47,14.95,15.36.52,13.29.14,26.62.14,40.3h-11.54Z"/>
    <path class="cls-1" d="M331.7,630.77c-1.17,2.65-2.35,5.33-3.26,7.4-6.21-.88-11.89-2.2-17.58-2.25-2.32-.02-4.67,2.69-7.01,4.16,1.66,2.23,2.86,5.25,5.07,6.54,4.56,2.66,9.74,4.2,14.5,6.55,7.33,3.6,9.91,8.35,9.2,16.01-.6,6.43-4.63,11.03-11.88,13.14-8.38,2.44-16.78,1.9-25.06-.56-3.86-1.15-4.07-2.31-2.82-10.6,4.47,1.1,8.89,2.54,13.42,3.19,3.21.46,6.73.41,9.81-.48,1.99-.57,4.5-2.89,4.8-4.74.3-1.86-1.36-4.8-3.06-6.05-2.88-2.13-6.48-3.28-9.75-4.89-3.27-1.61-6.75-2.92-9.72-4.98-9.32-6.45-8.04-19.48,2.22-24.33,8.27-3.91,22.12-3.14,31.13,1.9Z"/>
    <path class="cls-1" d="M438.52,777.58c4.25-12.33,8.77-24.25,12.39-36.45,1.66-5.58,4.3-7.69,9.81-6.71,1.41.25,2.88.21,4.84.33-.73,2.08-1.27,3.77-1.89,5.42-5.78,15.24-11.82,30.39-17.24,45.76-1.82,5.16-5.39,3.7-8.77,3.95-3.28.24-5.75.07-7.22-4.03-6.05-16.89-12.57-33.61-19.28-51.34,3.95,0,7.37-.29,10.69.16,1.09.15,2.32,2.07,2.81,3.43,4.65,12.98,9.16,26.01,13.87,39.49Z"/>
    <path class="cls-1" d="M351.54,743.64c-2.7-.23-4.81-.41-6.93-.58-1.36-3.08-.81-5.41,2.41-6.43,4.58-1.46,6.51-5.01,7.24-9.24.93-5.4,4.08-6.1,9.09-4.76v11.68h15.41c.14,2.98.27,5.52.42,8.74h-15.55c0,11.38-.31,22.14.29,32.85.1,1.86,3.8,4.31,6.27,5.03,2.68.78,5.85-.14,8.82-.32,1.51,8.32,1.05,8.98-7.16,10.06-12.97,1.7-20.17-4.45-20.3-17.48-.09-9.66-.02-19.31-.02-29.55Z"/>
    <path class="cls-1" d="M250.86,780.6c.83,8.9.73,9.02-7.54,10.08-12.71,1.62-19.8-4.21-20.18-17.09-.29-9.8-.06-19.61-.06-29.9-2.58-.24-4.8-.45-8.66-.81,1.61-2.56,2.32-5.19,3.92-5.95,4.12-1.96,6.69-4.75,7.39-9.2.79-5,3.55-6.72,8.95-5.07v11.61h15.59v8.91h-15.12c0,11.18-.21,21.76.12,32.32.11,3.52,2.9,5.58,6.53,5.62,2.96.03,5.92-.32,9.07-.51Z"/>
    <path class="cls-1" d="M553.84,670.96c1.52,9.65.6,10.96-8.7,12.36-19.45,2.93-31.35-7.02-31.68-26.64-.06-3.31.27-6.66.84-9.92,2.03-11.64,9.38-18.52,21.06-19.99,7.78-.98,14.26.04,20.1,3.33-1.07,2.82-2.16,5.71-3.31,8.73-8.5-2.27-17.05-5.96-23.49,2.95-4.62,6.4-4.2,21.15.28,27.24,4.09,5.56,9.63,5.99,24.91,1.93Z"/>
    <path class="cls-1" d="M505.4,637.5c-14.81-1.04-20.95,4.76-20.99,19.09-.02,8.16-.03,16.32-.07,24.49,0,.32-.16.64-.34,1.36h-10.86c-.16-1.07-.47-2.18-.48-3.29-.03-15.82-.02-31.65-.03-47.47,0-2.22-.26-4.68,3.12-4.26,2.57.32,6.42-1.76,6.7,3.39.1,1.89.72,3.76,1.26,6.42,5.76-8.27,12.64-12.49,22.81-10.06-.38,3.5-.74,6.75-1.13,10.34Z"/>
    <path class="cls-1" d="M111.06,789.59h-10.87v-54.85h10.87v54.85Z"/>
    <path class="cls-1" d="M262.95,734.77h10.78v54.79h-10.78v-54.79Z"/>
    <path class="cls-1" d="M391.1,789.59v-54.83h11.17v54.83h-11.17Z"/>
    <path class="cls-1" d="M193.71,734.75h11.03v54.77h-11.03v-54.77Z"/>
    <path class="cls-1" d="M199.22,726.16c-4.15-.01-6.57-2.42-6.5-6.44.07-3.97,2.64-6.35,6.79-6.16,3.89.18,6.17,2.11,6.23,6.2.06,4.04-2.37,6.41-6.52,6.39Z"/>
    <path class="cls-1" d="M268.43,713.56c4.16.05,6.48,2.43,6.34,6.56-.14,4.07-2.39,5.98-6.34,6.03-4.16.06-6.7-2.34-6.7-6.28,0-3.93,2.58-6.36,6.7-6.31Z"/>
    <path class="cls-1" d="M396.85,726.16c-4.23.04-6.58-2.22-6.56-6.33.02-4.07,2.44-6.41,6.64-6.27,3.9.13,6.21,2.1,6.4,6.11.19,3.93-2.38,6.46-6.47,6.49Z"/>
    <path class="cls-1" d="M105.63,713.56c4.18,0,6.52,2.35,6.42,6.47-.09,4.05-2.26,6.04-6.25,6.12-4.17.09-6.76-2.28-6.81-6.19-.05-3.9,2.55-6.41,6.63-6.41Z"/>
  </g>
  <path class="cls-2" d="M1715.15,250.84c-6.95-8.55-19.5-9.91-28.05-3.04-32.68,26.29-68.64,48.26-106.84,65.21-1.2.56-2.32,1.04-3.52,1.6h-.08c-32.12,14.06-65.61,24.53-99.97,31.24-30.45,5.91-61.77,8.95-93.09,8.95-103.64,0-202.49-32.28-285.75-93.33-8.95-6.55-21.42-4.63-27.97,4.24-6.47,8.95-4.55,21.42,4.31,27.97,90.22,66.08,197.22,101.08,309.41,101.08,26.53,0,52.98-2,79.03-5.99,2.08,25.25,9.43,49.06,15.42,66.32,9.91,28.61,39.71,74.95,87.74,74.95,8.15,0,16.78-1.36,25.97-4.31,63.37-20.54,60.81-90.06,50.66-123.94-5.19-17.18-13.03-40.35-25.81-61.77,33.88-16.78,65.92-37.24,95.49-61.05,8.63-6.95,9.99-19.5,3.04-28.13ZM1579.47,487.77c-42.43,13.74-63.45-45.23-63.69-45.79-8.23-23.65-12.71-43.71-13.58-60.81,26.53-6.07,52.5-14.3,77.67-24.61,9.11,14.3,17.18,33,24.29,56.82.16.56,17.74,60.65-24.69,74.4Z"/>
  <text class="cls-4" transform="translate(782.8 402.25)"><tspan x="0" y="0">+</tspan></text>
</svg>