<?xml version="1.0" encoding="UTF-8" standalone="no"?>
<svg
   id="Layer_1"
   data-name="Layer 1"
   viewBox="0 0 1717.59 785.95"
   version="1.1"
   sodipodi:docname="BabbleFinalLogoNoBGOpenSourceSeafoam.svg"
   inkscape:version="1.4 (e7c3feb100, 2024-10-09)"
   xmlns:inkscape="http://www.inkscape.org/namespaces/inkscape"
   xmlns:sodipodi="http://sodipodi.sourceforge.net/DTD/sodipodi-0.dtd"
   xmlns="http://www.w3.org/2000/svg"
   xmlns:svg="http://www.w3.org/2000/svg">
  <sodipodi:namedview
     id="namedview26"
     pagecolor="#ffffff"
     bordercolor="#000000"
     borderopacity="0.25"
     inkscape:showpageshadow="2"
     inkscape:pageopacity="0.0"
     inkscape:pagecheckerboard="0"
     inkscape:deskcolor="#d1d1d1"
     inkscape:zoom="0.36436556"
     inkscape:cx="720.43033"
     inkscape:cy="264.84391"
     inkscape:window-width="1920"
     inkscape:window-height="1172"
     inkscape:window-x="0"
     inkscape:window-y="0"
     inkscape:window-maximized="1"
     inkscape:current-layer="Layer_1" />
  <defs
     id="defs1">
    <style
       id="style1">
      .cls-1 {
        font-family: MyriadPro-Regular, 'Myriad Pro';
        font-size: 298.55px;
      }

      .cls-1, .cls-2 {
        fill: #529e8a;
      }

      .cls-2 {
        stroke-width: 0px;
      }
    </style>
  </defs>
  <path
     class="cls-2"
     d="M1713.15,245.84c-6.95-8.55-19.5-9.91-28.05-3.04-32.68,26.29-68.64,48.26-106.84,65.21-1.2.56-2.32,1.04-3.52,1.6h-.08c-32.12,14.06-65.61,24.53-99.97,31.24-30.45,5.91-61.77,8.95-93.09,8.95-103.64,0-202.49-32.28-285.75-93.33-8.95-6.55-21.42-4.63-27.97,4.24-6.47,8.95-4.55,21.42,4.31,27.97,90.22,66.08,197.22,101.08,309.41,101.08,26.53,0,52.98-2,79.03-5.99,2.08,25.25,9.43,49.06,15.42,66.32,9.91,28.61,39.71,74.95,87.74,74.95,8.15,0,16.78-1.36,25.97-4.31,63.37-20.54,60.81-90.06,50.66-123.94-5.19-17.18-13.03-40.35-25.81-61.77,33.88-16.78,65.92-37.24,95.49-61.05,8.63-6.95,9.99-19.5,3.04-28.13ZM1577.47,482.77c-42.43,13.74-63.45-45.23-63.69-45.79-8.23-23.65-12.71-43.71-13.58-60.81,26.53-6.07,52.5-14.3,77.67-24.61,9.11,14.3,17.18,33,24.29,56.82.16.56,17.74,60.65-24.69,74.4Z"
     id="path26" />
</svg>
