<?xml version="1.0" encoding="UTF-8"?>
<svg xmlns="http://www.w3.org/2000/svg" viewBox="0 0 73.35 76.83">
  <defs>
    <style>
      .cls-1 {
        fill: #fff;
        stroke: #231f20;
        stroke-miterlimit: 10;
        stroke-width: 2px;
      }
    </style>
  </defs>
  <g id="Layer_1" data-name="Layer 1">
    <path class="cls-1" d="M71.87,45.35c-.76-.93-2.13-1.08-3.06-.33-3.57,2.87-7.49,5.27-11.66,7.12-.13.06-.25.11-.38.17h0c-3.51,1.54-7.16,2.68-10.91,3.41-3.32.65-6.74.98-10.16.98-11.32,0-22.11-3.52-31.2-10.19-.98-.72-2.34-.51-3.05.46-.71.98-.5,2.34.47,3.05,9.85,7.21,21.53,11.04,33.78,11.04,2.9,0,5.78-.22,8.63-.65.23,2.76,1.03,5.36,1.68,7.24,1.08,3.12,4.34,8.18,9.58,8.18.89,0,1.83-.15,2.84-.47,6.92-2.24,6.64-9.83,5.53-13.53-.57-1.88-1.42-4.41-2.82-6.74,3.7-1.83,7.2-4.07,10.43-6.67.94-.76,1.09-2.13.33-3.07ZM57.05,71.21c-4.63,1.5-6.93-4.94-6.95-5-.9-2.58-1.39-4.77-1.48-6.64,2.9-.66,5.73-1.56,8.48-2.69.99,1.56,1.88,3.6,2.65,6.2.02.06,1.94,6.62-2.7,8.12Z"/>
  </g>
  <g id="Layer_2" data-name="Layer 2">
    <path class="cls-1" d="M46.88,41.58h-21.19c-12.3,0-22.31-9.1-22.31-20.29S13.39,1,25.69,1h21.19c12.3,0,22.31,9.1,22.31,20.29s-10.01,20.29-22.31,20.29ZM25.69,13.96c-5.06,0-9.34,3.35-9.34,7.32s4.28,7.33,9.34,7.33h21.19c5.06,0,9.34-3.36,9.34-7.33s-4.28-7.32-9.34-7.32h-21.19Z"/>
  </g>
</svg>