<?xml version="1.0" encoding="utf-8"?>
<!-- Generator: Adobe Illustrator 28.2.0, SVG Export Plug-In . SVG Version: 6.00 Build 0)  -->
<svg version="1.1" xmlns="http://www.w3.org/2000/svg" xmlns:xlink="http://www.w3.org/1999/xlink" x="0px" y="0px"
	 viewBox="0 0 100 100" style="enable-background:new 0 0 100 100;" xml:space="preserve">
<g id="Layer_1">
	<path d="M85.5,53.76c-0.76-0.93-2.13-1.08-3.06-0.33c-3.57,2.87-7.49,5.27-11.66,7.12c-0.13,0.06-0.25,0.11-0.38,0.17h-0.01
		c-3.51,1.54-7.16,2.68-10.91,3.41c-3.32,0.65-6.74,0.98-10.16,0.98c-11.32,0-22.11-3.52-31.2-10.19c-0.98-0.72-2.34-0.51-3.05,0.46
		c-0.71,0.98-0.5,2.34,0.47,3.05c9.85,7.21,21.53,11.04,33.78,11.04c2.9,0,5.78-0.22,8.63-0.65c0.23,2.76,1.03,5.36,1.68,7.24
		c1.08,3.12,4.34,8.18,9.58,8.18c0.89,0,1.83-0.15,2.84-0.47c6.92-2.24,6.64-9.83,5.53-13.53c-0.57-1.88-1.42-4.41-2.82-6.74
		c3.7-1.83,7.2-4.07,10.43-6.67C86.11,56.07,86.26,54.7,85.5,53.76z M70.69,79.63c-4.63,1.5-6.93-4.94-6.95-5
		c-0.9-2.58-1.39-4.77-1.48-6.64c2.9-0.66,5.73-1.56,8.48-2.69c0.99,1.56,1.88,3.6,2.65,6.2C73.4,71.57,75.32,78.13,70.69,79.63z"/>
</g>
<g id="Layer_2">
	<path d="M60.52,50H39.33c-12.3,0-22.31-9.1-22.31-20.29c0-11.19,10.01-20.29,22.31-20.29h21.19c12.3,0,22.31,9.1,22.31,20.29
		C82.82,40.9,72.82,50,60.52,50z M39.33,22.38c-5.06,0-9.34,3.35-9.34,7.32c0,3.97,4.28,7.33,9.34,7.33h21.19
		c5.06,0,9.34-3.36,9.34-7.33c0-3.97-4.28-7.32-9.34-7.32H39.33z"/>
</g>
</svg>
