<?xml version="1.0" encoding="UTF-8"?>
<svg id="Layer_1" data-name="Layer 1" xmlns="http://www.w3.org/2000/svg" viewBox="0 0 99.3 99.7">
  <defs>
    <style>
      .cls-1 {
        fill: #fff;
        stroke: #000;
        stroke-miterlimit: 10;
        stroke-width: 2px;
      }
    </style>
  </defs>
  <g id="Layer_2" data-name="Layer 2">
    <path class="cls-1" d="M90.7,31.9c-.9-1.1-2.4-1.2-3.5-.4-4.1,3.3-8.6,6-13.4,8.2-.2.1-.3.1-.4.2h0c-4,1.8-8.2,3.1-12.5,3.9-3.8.7-7.7,1.1-11.6,1.1-13,0-25.3-4-35.8-11.7-1.1-.8-2.7-.6-3.5.5s-.6,2.7.5,3.5c11.3,8.3,24.7,12.6,38.7,12.6,3.3,0,6.6-.2,9.9-.8.3,3.2,1.2,6.1,1.9,8.3,1.2,3.6,5,9.4,11,9.4,1,0,2.1-.2,3.2-.5,7.9-2.6,7.6-11.3,6.3-15.5-.7-2.1-1.6-5-3.2-7.7,4.2-2.1,8.2-4.7,12-7.6,1.1-.9,1.3-2.5.4-3.5ZM73.7,61.5c-5.3,1.7-7.9-5.7-8-5.7-1-3-1.6-5.5-1.7-7.6,3.3-.8,6.6-1.8,9.7-3.1,1.1,1.8,2.1,4.1,3,7.1.1.1,2.3,7.6-3,9.3Z"/>
  </g>
</svg>