<?xml version="1.0" encoding="UTF-8"?>
<svg id="Layer_2" data-name="Layer 2" xmlns="http://www.w3.org/2000/svg" viewBox="0 0 100 100">
  <defs>
    <style>
      .cls-1 {
        stroke-width: 0px;
      }
    </style>
  </defs>
  <path class="cls-1" d="M91,37.65002c-.87-1.07001-2.44-1.24005-3.51001-.38-4.08997,3.28998-8.58997,6.03998-13.37,8.15997-.15002.07001-.28998.13-.44.20001h-.01001c-4.01996,1.76001-8.20996,3.07001-12.51001,3.90997-3.81.73999-7.72998,1.12-11.64996,1.12-12.97003,0-25.34003-4.03998-35.76001-11.67999-1.12-.82001-2.67999-.57996-3.5.53003-.81,1.12-.57001,2.67999.53998,3.5,11.29004,8.26996,24.67999,12.64996,38.72003,12.64996,3.32001,0,6.63-.25,9.89001-.75.25995,3.16003,1.17999,6.14001,1.92999,8.29999,1.23999,3.58002,4.96997,9.38,10.97998,9.38,1.02002,0,2.09998-.16998,3.25-.53998,7.92999-2.57001,7.60999-11.27002,6.34003-15.51001-.65002-2.14996-1.63-5.04999-3.23004-7.72998,4.23999-2.09998,8.25-4.65997,11.95001-7.64001,1.08002-.87,1.25-2.44.38-3.51996ZM74.02002,67.29999c-5.31,1.71997-7.94-5.65997-7.97003-5.72998-1.02997-2.96002-1.58997-5.47003-1.70001-7.61005,3.32001-.75995,6.57001-1.78998,9.72003-3.07996,1.14001,1.78998,2.14996,4.13,3.03998,7.10999.02002.07001,2.22003,7.58997-3.08997,9.31Z"/>
</svg>