<?xml version="1.0" encoding="UTF-8"?>
<svg id="Layer_1" data-name="Layer 1" xmlns="http://www.w3.org/2000/svg" viewBox="0 0 13 16">
  <defs>
    <style>
      .cls-1 {
        stroke-width: 0px;
      }
    </style>
  </defs>
  <path class="cls-1" d="M4.5,16s-1-1-4.5-6h2v-3h1v4h-1.22c2.22,3,2.72,3.41,2.72,3.41,0,0,.5-.41,2.72-3.41h-1.22v-3h1v2h2c-3.5,5-4.5,6-4.5,6Z"/>
  <path class="cls-1" d="M8.5,0s1,1,4.5,6h-2v3h-1v-4h1.22c-2.22-3-2.72-3.41-2.72-3.41,0,0-.5.41-2.72,3.41h1.22v3h-1v-2h-2C7.5,1,8.5,0,8.5,0Z"/>
</svg>